<svg width="1153" height="1121" viewBox="0 0 1153 1121" fill="none" xmlns="http://www.w3.org/2000/svg">
<path d="M300.654 935.975C211.689 882.003 152.426 714.568 152.426 714.568C152.426 714.568 112.203 552.795 121.293 448.625C133.214 312.012 137.798 206.815 243.479 119.418C386.963 0.757918 547.408 75.2751 719.527 146.319C895.236 218.844 1083.29 282.209 1081.02 472.266C1080.12 547.542 1075.34 602.991 1021.51 655.62C959.939 715.82 882.54 662.971 806.04 702.512C692.524 761.186 703.577 852.4 595.752 953.183C487.927 1053.97 399.35 995.85 300.654 935.975Z" fill="url(#paint0_linear)"/>
<defs>
<linearGradient id="paint0_linear" x1="937.771" y1="570.232" x2="359.976" y2="972.164" gradientUnits="userSpaceOnUse">
<stop stop-color="#CE0F69"/>
<stop offset="1" stop-color="#B21E28"/>
</linearGradient>
</defs>
</svg>
